<?xml version="1.0" encoding="iso-8859-1"?>
<!-- Generator: Adobe Illustrator 19.1.0, SVG Export Plug-In . SVG Version: 6.00 Build 0)  -->
<svg version="1.1" id="Capa_1" xmlns="http://www.w3.org/2000/svg" xmlns:xlink="http://www.w3.org/1999/xlink" x="0px" y="0px"
	 viewBox="0 0 524.184 524.184" style="enable-background:new 0 0 524.184 524.184;" xml:space="preserve">
<g>
	<path d="M483.606,75.31H40.542C18.34,75.31,0,93.65,0,115.852v292.48c0,22.201,18.34,40.542,40.542,40.542h443.064
		c22.201,0,40.542-18.34,40.542-40.542v-292.48C525.113,93.65,506.772,75.31,483.606,75.31z M332.057,273.193L500.981,142.88
		v261.591L332.057,273.193z M41.507,99.442h442.098c7.722,0,14.479,5.792,16.41,12.549L276.07,285.741
		c-8.688,6.757-23.167,6.757-30.889,0L24.132,113.921C26.063,106.199,32.82,99.442,41.507,99.442z M24.132,404.471V144.81
		l166.994,129.348L24.132,404.471z M41.507,426.672c-1.931,0-3.861,0-4.826-0.965l174.716-136.105l19.306,15.444
		c8.688,6.757,19.306,9.653,29.924,9.653c10.618,0,22.201-2.896,29.924-9.653l21.236-16.41l176.646,137.07
		c-1.931,0.965-2.896,0.965-4.826,0.965H41.507z"/>
	<g>
	</g>
	<g>
	</g>
	<g>
	</g>
	<g>
	</g>
	<g>
	</g>
	<g>
	</g>
	<g>
	</g>
	<g>
	</g>
	<g>
	</g>
	<g>
	</g>
	<g>
	</g>
	<g>
	</g>
	<g>
	</g>
	<g>
	</g>
	<g>
	</g>
</g>
<g>
</g>
<g>
</g>
<g>
</g>
<g>
</g>
<g>
</g>
<g>
</g>
<g>
</g>
<g>
</g>
<g>
</g>
<g>
</g>
<g>
</g>
<g>
</g>
<g>
</g>
<g>
</g>
<g>
</g>
</svg>
