<?xml version="1.0" encoding="iso-8859-1"?>
<!-- Generator: Adobe Illustrator 16.0.0, SVG Export Plug-In . SVG Version: 6.00 Build 0)  -->
<!DOCTYPE svg PUBLIC "-//W3C//DTD SVG 1.1//EN" "http://www.w3.org/Graphics/SVG/1.1/DTD/svg11.dtd">
<svg version="1.1" id="Capa_1" xmlns="http://www.w3.org/2000/svg" xmlns:xlink="http://www.w3.org/1999/xlink" x="0px" y="0px"
	 width="80px" height="80px" viewBox="0 0 430 420" style="enable-background:new 0 0 100 100;"
	 xml:space="preserve">
<g>
	<path d="M342.012,237.535H213.264c12.956-9.977,26.38-19.162,37.94-28.02c2.867-2.19,5.657-4.442,8.411-6.712h82.396
		c11.703,0,21.185-9.483,21.185-21.184s-9.481-21.184-21.185-21.184H298.78c5.894-9.026,10.923-18.708,14.623-29.392
		c9.528-27.547,4.776-59.267-11.159-83.374C262.057-13.134,179.492-8.639,121.998,21.565c-24.192,12.711-2.778,49.281,21.385,36.587
		c28.538-14.992,60.222-21.76,91.431-11.499c21.35,7.019,39.082,26.4,40.932,49.184c2.087,25.827-13.554,47.487-31.599,64.61H81.749
		c-11.7,0-21.185,9.484-21.185,21.184c0,11.701,9.484,21.184,21.185,21.184h107.966c-9.859,7.282-19.544,14.78-28.611,23.1
		c-3.969,3.652-7.693,7.548-11.195,11.632h-68.16c-11.7,0-21.185,9.481-21.185,21.185c0,11.697,9.484,21.185,21.185,21.185h43.447
		c-13.767,38.236-9.431,81.645,21.55,113.604c42.853,44.213,116.362,33.372,166.114,9.132c24.564-11.969,3.073-48.498-21.386-36.588
		c-38.515,18.773-109.106,28.839-127.392-22.721c-8.79-24.789-4.176-45.482,7.19-63.422h170.738
		c11.703,0,21.185-9.487,21.185-21.185C363.196,247.034,353.715,237.535,342.012,237.535z"/>
</g>
<g>
</g>
<g>
</g>
<g>
</g>
<g>
</g>
<g>
</g>
<g>
</g>
<g>
</g>
<g>
</g>
<g>
</g>
<g>
</g>
<g>
</g>
<g>
</g>
<g>
</g>
<g>
</g>
<g>
</g>
</svg>
